<svg version="1.1" id="Layer_1" xmlns="http://www.w3.org/2000/svg" xmlns:xlink="http://www.w3.org/1999/xlink" x="0px" y="0px"
	 width="100%" viewBox="0 0 1674 912" enable-background="new 0 0 1674 912" xml:space="preserve">
<path fill="#FFFFFF" opacity="1.000000" stroke="none" 
	d="
M1060.000000,913.000000 
	C706.666687,913.000000 353.833344,913.000000 1.000000,913.000000 
	C1.000000,609.000000 1.000000,305.000000 1.000000,1.000000 
	C559.000000,1.000000 1117.000000,1.000000 1675.000000,1.000000 
	C1675.000000,305.000000 1675.000000,609.000000 1675.000000,913.000000 
	C1470.166626,913.000000 1265.333374,913.000000 1060.000000,913.000000 
M47.999012,561.500000 
	C47.999012,653.098816 47.999012,744.697632 47.999012,836.756714 
	C50.734051,836.756714 52.868332,836.756775 55.002617,836.756775 
	C498.982574,836.756775 942.962524,836.748962 1386.942505,836.862488 
	C1391.591309,836.863647 1394.644531,835.505249 1397.477539,831.917175 
	C1410.562500,815.344482 1423.810425,798.899536 1437.083130,782.476013 
	C1468.539429,743.551758 1500.057617,704.677795 1531.522705,665.760681 
	C1560.687866,629.688232 1589.774658,593.552246 1619.016968,557.542480 
	C1622.513672,553.236633 1624.168091,548.949707 1624.161987,543.214478 
	C1623.994629,388.388275 1624.028564,233.561920 1624.028564,78.735580 
	C1624.028564,76.625961 1624.028564,74.516342 1624.028564,71.999565 
	C1621.163940,71.999565 1618.867065,71.999565 1616.570190,71.999565 
	C1171.923584,71.999565 727.276978,71.999573 282.630371,71.999580 
	C281.630432,71.999580 280.525177,71.722984 279.651733,72.055389 
	C277.628326,72.825424 275.091187,73.382591 273.852539,74.910088 
	C248.615158,106.032433 223.524139,137.273529 198.419220,168.503220 
	C173.106674,199.991196 147.832748,231.510239 122.501312,262.983032 
	C98.524803,292.772430 74.452576,322.485077 50.587254,352.363129 
	C49.008400,354.339752 48.109283,357.432983 48.104160,360.009247 
	C47.971260,426.839294 47.999016,493.669678 47.999012,561.500000 
z"/>
<path fill="#F08833" opacity="1.000000" stroke="none" 
	d="
M47.999012,561.000000 
	C47.999016,493.669678 47.971260,426.839294 48.104160,360.009247 
	C48.109283,357.432983 49.008400,354.339752 50.587254,352.363129 
	C74.452576,322.485077 98.524803,292.772430 122.501312,262.983032 
	C147.832748,231.510239 173.106674,199.991196 198.419220,168.503220 
	C223.524139,137.273529 248.615158,106.032433 273.852539,74.910088 
	C275.091187,73.382591 277.628326,72.825424 279.651733,72.055389 
	C280.525177,71.722984 281.630432,71.999580 282.630371,71.999580 
	C727.276978,71.999573 1171.923584,71.999565 1616.570190,71.999565 
	C1618.867065,71.999565 1621.163940,71.999565 1624.028564,71.999565 
	C1624.028564,74.516342 1624.028564,76.625961 1624.028564,78.735580 
	C1624.028564,233.561920 1623.994629,388.388275 1624.161987,543.214478 
	C1624.168091,548.949707 1622.513672,553.236633 1619.016968,557.542480 
	C1589.774658,593.552246 1560.687866,629.688232 1531.522705,665.760681 
	C1500.057617,704.677795 1468.539429,743.551758 1437.083130,782.476013 
	C1423.810425,798.899536 1410.562500,815.344482 1397.477539,831.917175 
	C1394.644531,835.505249 1391.591309,836.863647 1386.942505,836.862488 
	C942.962524,836.748962 498.982574,836.756775 55.002617,836.756775 
	C52.868332,836.756775 50.734051,836.756714 47.999012,836.756714 
	C47.999012,744.697632 47.999012,653.098816 47.999012,561.000000 
M1204.991455,377.036377 
	C1203.269043,369.886658 1201.245117,368.223450 1194.052734,368.141632 
	C1190.553711,368.101837 1187.053589,368.117706 1183.554199,368.138031 
	C1174.687744,368.189575 1171.990723,370.896973 1171.989990,379.782532 
	C1171.985229,437.774750 1171.987549,495.766937 1171.988525,553.759155 
	C1171.988525,554.925598 1171.925781,556.098145 1172.019653,557.257507 
	C1172.391479,561.850342 1174.709839,564.794800 1179.459595,565.059570 
	C1184.443481,565.337463 1189.447998,565.339661 1194.442627,565.313965 
	C1203.484375,565.267578 1206.007690,562.701599 1206.010864,553.726135 
	C1206.023560,518.230896 1205.875488,482.734436 1206.165161,447.241547 
	C1206.222900,440.165588 1207.319580,432.949646 1209.016235,426.064117 
	C1213.608276,407.426880 1229.056519,395.092621 1248.161621,394.063110 
	C1267.913940,392.998749 1285.276245,403.609955 1291.395386,421.893585 
	C1294.143555,430.105011 1295.531372,439.100952 1295.715698,447.779572 
	C1296.271240,473.931091 1295.933838,500.101593 1295.942749,526.264709 
	C1295.946167,536.096741 1295.899658,545.929016 1295.961426,555.760620 
	C1296.000854,562.025269 1298.734619,564.960571 1304.959595,565.252197 
	C1309.449463,565.462463 1313.956421,565.362671 1318.455078,565.322754 
	C1327.591553,565.241699 1329.960815,562.843323 1329.964478,553.725342 
	C1329.978882,518.730103 1329.805908,483.733185 1330.132935,448.740936 
	C1330.204956,441.021576 1331.267090,433.117401 1333.217407,425.649384 
	C1337.490479,409.287872 1348.423462,398.559387 1364.867554,395.206177 
	C1382.615845,391.586945 1398.810669,395.545197 1410.285278,410.839691 
	C1418.101929,421.258667 1419.764893,433.860504 1419.878296,446.374390 
	C1420.206177,482.533264 1419.996216,518.696960 1420.009155,554.858765 
	C1420.011841,562.377563 1422.587769,565.079590 1430.079834,565.305725 
	C1433.909180,565.421265 1437.744995,565.348816 1441.577637,565.328796 
	C1451.274536,565.278076 1453.883789,562.630432 1453.885986,552.801575 
	C1453.893311,519.639343 1454.028809,486.476166 1453.798828,453.315552 
	C1453.734497,444.026001 1453.146362,434.661438 1451.805420,425.476196 
	C1449.264648,408.070740 1442.528809,392.514374 1428.733521,380.874237 
	C1407.540039,362.991638 1383.355957,360.949554 1357.847656,368.667358 
	C1341.354492,373.657562 1328.631348,384.060638 1319.361694,399.308563 
	C1307.837524,377.218384 1289.937622,365.996338 1265.559448,364.789185 
	C1241.889526,363.617065 1221.440063,370.341522 1205.000366,389.714813 
	C1205.000366,384.840790 1205.000366,381.378723 1204.991455,377.036377 
M383.400848,296.072418 
	C380.901855,296.072418 378.402893,296.072052 375.903900,296.072449 
	C364.283844,296.074341 362.249115,298.107300 362.248962,309.739136 
	C362.247894,390.383026 362.248199,471.026947 362.249939,551.670837 
	C362.249969,553.336853 362.160156,555.012634 362.304443,556.667053 
	C362.749969,561.774902 365.237610,564.672424 370.369843,565.113953 
	C375.827850,565.583496 381.346619,565.667175 386.825592,565.495850 
	C394.610199,565.252502 397.134766,562.462952 397.139435,554.648804 
	C397.158783,522.324585 397.121704,490.000366 397.176483,457.676270 
	C397.184662,452.853516 397.406403,448.017517 397.810974,443.211334 
	C400.475006,411.560364 422.216187,392.568115 453.951324,394.081360 
	C476.454285,395.154388 491.960327,406.279358 498.360474,426.923370 
	C500.495148,433.808777 501.767670,441.241180 501.838867,448.439331 
	C502.191467,484.092499 502.001678,519.750977 502.025208,555.407532 
	C502.029388,561.752563 504.437195,564.734375 510.683472,565.242981 
	C516.146484,565.687866 521.673828,565.710632 527.154419,565.481812 
	C534.595093,565.171204 537.077820,562.326050 537.080139,554.800903 
	C537.090637,520.977112 537.234375,487.152252 536.987854,453.330292 
	C536.920410,444.073578 536.581726,434.642426 534.778076,425.608643 
	C529.862671,400.989136 517.410889,381.540405 493.650085,370.941559 
	C480.099640,364.897186 465.743042,364.007172 451.157349,364.958954 
	C435.826843,365.959381 421.816711,370.517090 409.914032,380.493256 
	C405.693390,384.030762 401.833344,387.998535 397.148163,392.388824 
	C397.148163,389.762268 397.148254,387.987823 397.148163,386.213409 
	C397.147095,359.554260 397.168121,332.895111 397.130737,306.236023 
	C397.120178,298.698151 394.466278,296.152832 386.858978,296.074615 
	C386.025940,296.066040 385.192780,296.072784 383.400848,296.072418 
M1079.278931,431.319885 
	C1080.128418,439.236084 1081.645264,447.146759 1081.711182,455.069519 
	C1081.987305,488.231537 1081.813721,521.397217 1081.838989,554.561523 
	C1081.845215,562.891724 1084.130127,565.174561 1092.479980,565.316284 
	C1096.811768,565.389832 1101.146240,565.372742 1105.478638,565.323181 
	C1114.273438,565.222656 1116.998901,562.433350 1117.000366,553.575317 
	C1117.005737,520.910950 1117.151489,488.245514 1116.907837,455.582947 
	C1116.838745,446.309143 1116.352295,436.919708 1114.793823,427.799133 
	C1110.926270,405.162689 1100.579224,386.102844 1080.063110,374.475922 
	C1058.120483,362.040588 1034.614258,362.116455 1010.934082,368.796570 
	C997.249390,372.656952 986.732056,381.487823 976.955200,392.969360 
	C976.955200,379.333527 976.955383,366.751068 976.955017,354.168610 
	C976.954529,338.169739 977.012390,322.170563 976.925964,306.172150 
	C976.887390,299.037292 973.912720,296.163116 966.886230,296.085449 
	C962.553772,296.037537 958.220337,296.070801 953.887329,296.075500 
	C944.600647,296.085602 942.042725,298.628418 942.041931,307.894592 
	C942.037781,357.557770 942.039612,407.220917 942.039734,456.884094 
	C942.039795,489.548462 942.032043,522.212830 942.046936,554.877197 
	C942.050415,562.375549 944.663391,565.090271 952.177307,565.303467 
	C956.506897,565.426270 960.842957,565.360474 965.175659,565.326111 
	C974.405151,565.252930 976.945435,562.673279 976.952271,553.370789 
	C976.978149,518.206787 976.759399,483.040619 977.088928,447.879517 
	C977.345947,420.459106 992.712646,397.325562 1023.385742,394.412872 
	C1049.506958,391.932434 1071.817261,402.059113 1079.278931,431.319885 
M690.044434,449.567505 
	C680.983154,470.719360 671.921936,491.871216 662.587097,513.661682 
	C661.726135,511.902130 661.171204,510.898590 660.730286,509.847198 
	C653.476440,492.551392 646.242188,475.247314 638.992920,457.949585 
	C627.704041,431.013000 616.353882,404.101898 605.162598,377.124817 
	C603.162903,372.304413 600.465088,368.550751 594.920654,368.291290 
	C589.103271,368.019073 583.233765,367.830933 577.442566,368.296539 
	C570.831665,368.828033 568.220520,374.340271 570.957947,380.799286 
	C594.794983,437.041595 618.597839,493.298462 642.512695,549.507629 
	C643.780884,552.488342 643.956604,554.928040 642.583984,557.922424 
	C638.918518,565.918640 635.540344,574.048401 632.135193,582.161743 
	C625.973694,596.842773 619.669983,611.469482 613.845276,626.283997 
	C611.270569,632.832458 614.745056,637.405823 621.756531,637.730347 
	C625.082031,637.884338 628.450073,637.476257 631.747070,637.819824 
	C640.750793,638.757812 645.668030,634.645996 649.175354,626.431213 
	C676.027405,563.538696 703.206848,500.785980 730.285950,437.990387 
	C738.434875,419.093292 746.676758,400.235596 754.697449,381.284241 
	C758.169189,373.081207 754.831421,368.257568 745.993896,368.142365 
	C741.995544,368.090210 737.995300,368.182129 733.997192,368.121735 
	C727.817627,368.028412 723.826416,370.685944 721.351746,376.559814 
	C711.170654,400.725525 700.724670,424.779602 690.044434,449.567505 
M861.211914,533.578430 
	C855.064941,531.184570 850.640198,526.750244 849.133972,520.524536 
	C847.199341,512.527893 845.343567,504.280945 845.227295,496.116608 
	C844.781250,464.807343 845.041504,433.487946 845.053589,402.172333 
	C845.054199,400.590057 845.199219,399.007874 845.289551,397.171814 
	C847.699402,397.171814 849.515991,397.172241 851.332642,397.171722 
	C864.825012,397.168060 878.317688,397.222717 891.809509,397.134674 
	C898.125488,397.093445 900.905457,394.223694 901.012878,388.006805 
	C901.061829,385.175934 901.028748,382.343475 901.022339,379.511749 
	C901.003357,371.158508 898.044678,368.172546 889.582520,368.145935 
	C876.590088,368.105072 863.597290,368.134583 850.604675,368.134247 
	C848.853943,368.134216 847.103210,368.134247 845.043640,368.134247 
	C845.043640,365.573334 845.044006,363.761688 845.043640,361.950043 
	C845.039978,343.127380 845.070129,324.304657 845.012939,305.482147 
	C844.994446,299.396271 841.923401,296.281708 835.872009,296.102325 
	C831.711304,295.978943 827.544067,296.072754 823.379761,296.075592 
	C813.928345,296.082001 811.753113,298.249176 811.739319,307.860992 
	C811.713318,326.017365 811.731812,344.173767 811.731689,362.330170 
	C811.731628,364.110626 811.731628,365.891052 811.731628,368.134277 
	C809.478394,368.134277 807.847107,368.134094 806.215881,368.134308 
	C798.553528,368.135345 790.889954,368.049835 783.229248,368.163177 
	C776.294128,368.265778 773.208069,371.431030 773.112854,378.274414 
	C773.064209,381.771729 772.999512,385.274445 773.133667,388.767395 
	C773.342590,394.207458 776.127441,397.010284 781.523438,397.118134 
	C787.684143,397.241211 793.848999,397.164642 800.012024,397.171112 
	C803.763245,397.175018 807.514404,397.171814 811.731689,397.171814 
	C811.731689,399.947113 811.731628,401.913361 811.731628,403.879578 
	C811.731934,434.695465 811.459717,465.515137 811.884766,496.325165 
	C812.027954,506.702667 812.853394,517.318481 815.278503,527.363953 
	C819.968323,546.790283 832.509888,560.102295 852.427307,563.222778 
	C867.233154,565.542358 882.553589,564.717285 897.650146,564.948608 
	C901.669495,565.010193 903.795532,561.904480 904.111938,558.014038 
	C904.381287,554.702393 904.273865,551.357422 904.275208,548.027161 
	C904.279419,537.441284 902.616089,536.006470 892.225220,535.689880 
	C882.119690,535.381897 872.031311,534.513123 861.211914,533.578430 
M291.044983,400.168762 
	C300.534515,400.044891 310.025177,399.974976 319.513214,399.778992 
	C326.355377,399.637665 329.045685,397.028809 329.184601,390.504883 
	C329.276794,386.176514 329.256104,381.843964 329.194824,377.514587 
	C329.102234,370.974457 326.814362,368.469513 320.199219,368.193207 
	C314.880005,367.971008 309.537628,368.032135 304.214630,368.222443 
	C284.081482,368.942230 266.243164,374.536438 254.190613,392.183319 
	C254.086563,392.335663 253.634705,392.250458 253.045578,392.302795 
	C253.045578,387.658661 253.072144,383.037476 253.039352,378.416687 
	C252.990128,371.480408 250.105530,368.459747 243.080017,368.161194 
	C239.588699,368.012848 236.085999,368.129486 232.588455,368.130707 
	C222.025421,368.134399 219.197327,370.912903 219.196747,381.327484 
	C219.193573,438.454224 219.194443,495.580963 219.199783,552.707703 
	C219.199936,554.205017 219.086792,555.733093 219.336395,557.193848 
	C220.110291,561.723083 222.344482,564.977051 227.385452,565.176514 
	C232.700928,565.386963 238.032898,565.686340 243.340057,565.484497 
	C251.608047,565.169983 254.116196,562.333984 254.118591,554.018799 
	C254.129089,517.377747 253.908447,480.734833 254.212875,444.096283 
	C254.406021,420.851044 266.715332,403.967255 291.044983,400.168762 
z"/>
<path fill="#FFFFFE" opacity="1.000000" stroke="none" 
	d="
M1204.995850,377.476501 
	C1205.000366,381.378723 1205.000366,384.840790 1205.000366,389.714813 
	C1221.440063,370.341522 1241.889526,363.617065 1265.559448,364.789185 
	C1289.937622,365.996338 1307.837524,377.218384 1319.361694,399.308563 
	C1328.631348,384.060638 1341.354492,373.657562 1357.847656,368.667358 
	C1383.355957,360.949554 1407.540039,362.991638 1428.733521,380.874237 
	C1442.528809,392.514374 1449.264648,408.070740 1451.805420,425.476196 
	C1453.146362,434.661438 1453.734497,444.026001 1453.798828,453.315552 
	C1454.028809,486.476166 1453.893311,519.639343 1453.885986,552.801575 
	C1453.883789,562.630432 1451.274536,565.278076 1441.577637,565.328796 
	C1437.744995,565.348816 1433.909180,565.421265 1430.079834,565.305725 
	C1422.587769,565.079590 1420.011841,562.377563 1420.009155,554.858765 
	C1419.996216,518.696960 1420.206177,482.533264 1419.878296,446.374390 
	C1419.764893,433.860504 1418.101929,421.258667 1410.285278,410.839691 
	C1398.810669,395.545197 1382.615845,391.586945 1364.867554,395.206177 
	C1348.423462,398.559387 1337.490479,409.287872 1333.217407,425.649384 
	C1331.267090,433.117401 1330.204956,441.021576 1330.132935,448.740936 
	C1329.805908,483.733185 1329.978882,518.730103 1329.964478,553.725342 
	C1329.960815,562.843323 1327.591553,565.241699 1318.455078,565.322754 
	C1313.956421,565.362671 1309.449463,565.462463 1304.959595,565.252197 
	C1298.734619,564.960571 1296.000854,562.025269 1295.961426,555.760620 
	C1295.899658,545.929016 1295.946167,536.096741 1295.942749,526.264709 
	C1295.933838,500.101593 1296.271240,473.931091 1295.715698,447.779572 
	C1295.531372,439.100952 1294.143555,430.105011 1291.395386,421.893585 
	C1285.276245,403.609955 1267.913940,392.998749 1248.161621,394.063110 
	C1229.056519,395.092621 1213.608276,407.426880 1209.016235,426.064117 
	C1207.319580,432.949646 1206.222900,440.165588 1206.165161,447.241547 
	C1205.875488,482.734436 1206.023560,518.230896 1206.010864,553.726135 
	C1206.007690,562.701599 1203.484375,565.267578 1194.442627,565.313965 
	C1189.447998,565.339661 1184.443481,565.337463 1179.459595,565.059570 
	C1174.709839,564.794800 1172.391479,561.850342 1172.019653,557.257507 
	C1171.925781,556.098145 1171.988525,554.925598 1171.988525,553.759155 
	C1171.987549,495.766937 1171.985229,437.774750 1171.989990,379.782532 
	C1171.990723,370.896973 1174.687744,368.189575 1183.554199,368.138031 
	C1187.053589,368.117706 1190.553711,368.101837 1194.052734,368.141632 
	C1201.245117,368.223450 1203.269043,369.886658 1204.995850,377.476501 
z"/>
<path fill="#FFFEFD" opacity="1.000000" stroke="none" 
	d="
M383.880249,296.072449 
	C385.192780,296.072784 386.025940,296.066040 386.858978,296.074615 
	C394.466278,296.152832 397.120178,298.698151 397.130737,306.236023 
	C397.168121,332.895111 397.147095,359.554260 397.148163,386.213409 
	C397.148254,387.987823 397.148163,389.762268 397.148163,392.388824 
	C401.833344,387.998535 405.693390,384.030762 409.914032,380.493256 
	C421.816711,370.517090 435.826843,365.959381 451.157349,364.958954 
	C465.743042,364.007172 480.099640,364.897186 493.650085,370.941559 
	C517.410889,381.540405 529.862671,400.989136 534.778076,425.608643 
	C536.581726,434.642426 536.920410,444.073578 536.987854,453.330292 
	C537.234375,487.152252 537.090637,520.977112 537.080139,554.800903 
	C537.077820,562.326050 534.595093,565.171204 527.154419,565.481812 
	C521.673828,565.710632 516.146484,565.687866 510.683472,565.242981 
	C504.437195,564.734375 502.029388,561.752563 502.025208,555.407532 
	C502.001678,519.750977 502.191467,484.092499 501.838867,448.439331 
	C501.767670,441.241180 500.495148,433.808777 498.360474,426.923370 
	C491.960327,406.279358 476.454285,395.154388 453.951324,394.081360 
	C422.216187,392.568115 400.475006,411.560364 397.810974,443.211334 
	C397.406403,448.017517 397.184662,452.853516 397.176483,457.676270 
	C397.121704,490.000366 397.158783,522.324585 397.139435,554.648804 
	C397.134766,562.462952 394.610199,565.252502 386.825592,565.495850 
	C381.346619,565.667175 375.827850,565.583496 370.369843,565.113953 
	C365.237610,564.672424 362.749969,561.774902 362.304443,556.667053 
	C362.160156,555.012634 362.249969,553.336853 362.249939,551.670837 
	C362.248199,471.026947 362.247894,390.383026 362.248962,309.739136 
	C362.249115,298.107300 364.283844,296.074341 375.903900,296.072449 
	C378.402893,296.072052 380.901855,296.072418 383.880249,296.072449 
z"/>
<path fill="#FFFFFE" opacity="1.000000" stroke="none" 
	d="
M1079.174316,430.920349 
	C1071.817261,402.059113 1049.506958,391.932434 1023.385742,394.412872 
	C992.712646,397.325562 977.345947,420.459106 977.088928,447.879517 
	C976.759399,483.040619 976.978149,518.206787 976.952271,553.370789 
	C976.945435,562.673279 974.405151,565.252930 965.175659,565.326111 
	C960.842957,565.360474 956.506897,565.426270 952.177307,565.303467 
	C944.663391,565.090271 942.050415,562.375549 942.046936,554.877197 
	C942.032043,522.212830 942.039795,489.548462 942.039734,456.884094 
	C942.039612,407.220917 942.037781,357.557770 942.041931,307.894592 
	C942.042725,298.628418 944.600647,296.085602 953.887329,296.075500 
	C958.220337,296.070801 962.553772,296.037537 966.886230,296.085449 
	C973.912720,296.163116 976.887390,299.037292 976.925964,306.172150 
	C977.012390,322.170563 976.954529,338.169739 976.955017,354.168610 
	C976.955383,366.751068 976.955200,379.333527 976.955200,392.969360 
	C986.732056,381.487823 997.249390,372.656952 1010.934082,368.796570 
	C1034.614258,362.116455 1058.120483,362.040588 1080.063110,374.475922 
	C1100.579224,386.102844 1110.926270,405.162689 1114.793823,427.799133 
	C1116.352295,436.919708 1116.838745,446.309143 1116.907837,455.582947 
	C1117.151489,488.245514 1117.005737,520.910950 1117.000366,553.575317 
	C1116.998901,562.433350 1114.273438,565.222656 1105.478638,565.323181 
	C1101.146240,565.372742 1096.811768,565.389832 1092.479980,565.316284 
	C1084.130127,565.174561 1081.845215,562.891724 1081.838989,554.561523 
	C1081.813721,521.397217 1081.987305,488.231537 1081.711182,455.069519 
	C1081.645264,447.146759 1080.128418,439.236084 1079.174316,430.920349 
z"/>
<path fill="#FFFEFE" opacity="1.000000" stroke="none" 
	d="
M690.210327,449.221130 
	C700.724670,424.779602 711.170654,400.725525 721.351746,376.559814 
	C723.826416,370.685944 727.817627,368.028412 733.997192,368.121735 
	C737.995300,368.182129 741.995544,368.090210 745.993896,368.142365 
	C754.831421,368.257568 758.169189,373.081207 754.697449,381.284241 
	C746.676758,400.235596 738.434875,419.093292 730.285950,437.990387 
	C703.206848,500.785980 676.027405,563.538696 649.175354,626.431213 
	C645.668030,634.645996 640.750793,638.757812 631.747070,637.819824 
	C628.450073,637.476257 625.082031,637.884338 621.756531,637.730347 
	C614.745056,637.405823 611.270569,632.832458 613.845276,626.283997 
	C619.669983,611.469482 625.973694,596.842773 632.135193,582.161743 
	C635.540344,574.048401 638.918518,565.918640 642.583984,557.922424 
	C643.956604,554.928040 643.780884,552.488342 642.512695,549.507629 
	C618.597839,493.298462 594.794983,437.041595 570.957947,380.799286 
	C568.220520,374.340271 570.831665,368.828033 577.442566,368.296539 
	C583.233765,367.830933 589.103271,368.019073 594.920654,368.291290 
	C600.465088,368.550751 603.162903,372.304413 605.162598,377.124817 
	C616.353882,404.101898 627.704041,431.013000 638.992920,457.949585 
	C646.242188,475.247314 653.476440,492.551392 660.730286,509.847198 
	C661.171204,510.898590 661.726135,511.902130 662.587097,513.661682 
	C671.921936,491.871216 680.983154,470.719360 690.210327,449.221130 
z"/>
<path fill="#FFFFFE" opacity="1.000000" stroke="none" 
	d="
M861.573608,533.734497 
	C872.031311,534.513123 882.119690,535.381897 892.225220,535.689880 
	C902.616089,536.006470 904.279419,537.441284 904.275208,548.027161 
	C904.273865,551.357422 904.381287,554.702393 904.111938,558.014038 
	C903.795532,561.904480 901.669495,565.010193 897.650146,564.948608 
	C882.553589,564.717285 867.233154,565.542358 852.427307,563.222778 
	C832.509888,560.102295 819.968323,546.790283 815.278503,527.363953 
	C812.853394,517.318481 812.027954,506.702667 811.884766,496.325165 
	C811.459717,465.515137 811.731934,434.695465 811.731628,403.879578 
	C811.731628,401.913361 811.731689,399.947113 811.731689,397.171814 
	C807.514404,397.171814 803.763245,397.175018 800.012024,397.171112 
	C793.848999,397.164642 787.684143,397.241211 781.523438,397.118134 
	C776.127441,397.010284 773.342590,394.207458 773.133667,388.767395 
	C772.999512,385.274445 773.064209,381.771729 773.112854,378.274414 
	C773.208069,371.431030 776.294128,368.265778 783.229248,368.163177 
	C790.889954,368.049835 798.553528,368.135345 806.215881,368.134308 
	C807.847107,368.134094 809.478394,368.134277 811.731628,368.134277 
	C811.731628,365.891052 811.731628,364.110626 811.731689,362.330170 
	C811.731812,344.173767 811.713318,326.017365 811.739319,307.860992 
	C811.753113,298.249176 813.928345,296.082001 823.379761,296.075592 
	C827.544067,296.072754 831.711304,295.978943 835.872009,296.102325 
	C841.923401,296.281708 844.994446,299.396271 845.012939,305.482147 
	C845.070129,324.304657 845.039978,343.127380 845.043640,361.950043 
	C845.044006,363.761688 845.043640,365.573334 845.043640,368.134247 
	C847.103210,368.134247 848.853943,368.134216 850.604675,368.134247 
	C863.597290,368.134583 876.590088,368.105072 889.582520,368.145935 
	C898.044678,368.172546 901.003357,371.158508 901.022339,379.511749 
	C901.028748,382.343475 901.061829,385.175934 901.012878,388.006805 
	C900.905457,394.223694 898.125488,397.093445 891.809509,397.134674 
	C878.317688,397.222717 864.825012,397.168060 851.332642,397.171722 
	C849.515991,397.172241 847.699402,397.171814 845.289551,397.171814 
	C845.199219,399.007874 845.054199,400.590057 845.053589,402.172333 
	C845.041504,433.487946 844.781250,464.807343 845.227295,496.116608 
	C845.343567,504.280945 847.199341,512.527893 849.133972,520.524536 
	C850.640198,526.750244 855.064941,531.184570 861.573608,533.734497 
z"/>
<path fill="#FFFEFD" opacity="1.000000" stroke="none" 
	d="
M290.605988,400.252045 
	C266.715332,403.967255 254.406021,420.851044 254.212875,444.096283 
	C253.908447,480.734833 254.129089,517.377747 254.118591,554.018799 
	C254.116196,562.333984 251.608047,565.169983 243.340057,565.484497 
	C238.032898,565.686340 232.700928,565.386963 227.385452,565.176514 
	C222.344482,564.977051 220.110291,561.723083 219.336395,557.193848 
	C219.086792,555.733093 219.199936,554.205017 219.199783,552.707703 
	C219.194443,495.580963 219.193573,438.454224 219.196747,381.327484 
	C219.197327,370.912903 222.025421,368.134399 232.588455,368.130707 
	C236.085999,368.129486 239.588699,368.012848 243.080017,368.161194 
	C250.105530,368.459747 252.990128,371.480408 253.039352,378.416687 
	C253.072144,383.037476 253.045578,387.658661 253.045578,392.302795 
	C253.634705,392.250458 254.086563,392.335663 254.190613,392.183319 
	C266.243164,374.536438 284.081482,368.942230 304.214630,368.222443 
	C309.537628,368.032135 314.880005,367.971008 320.199219,368.193207 
	C326.814362,368.469513 329.102234,370.974457 329.194824,377.514587 
	C329.256104,381.843964 329.276794,386.176514 329.184601,390.504883 
	C329.045685,397.028809 326.355377,399.637665 319.513214,399.778992 
	C310.025177,399.974976 300.534515,400.044891 290.605988,400.252045 
z"/>
</svg>